<?xml version="1.0" encoding="UTF-8" standalone="no"?>
<svg width="48px" height="48px" viewBox="0 0 48 48" version="1.1" xmlns="http://www.w3.org/2000/svg" xmlns:xlink="http://www.w3.org/1999/xlink">
    <!-- Generator: Sketch 39.1 (31720) - http://www.bohemiancoding.com/sketch -->
    <title>ic_empty-schedule-circle</title>
    <desc>Created with Sketch.</desc>
    <defs>
        <circle id="path-1" cx="24" cy="24" r="24"></circle>
        <linearGradient x1="100%" y1="113.248149%" x2="41.6308149%" y2="50%" id="linearGradient-3">
            <stop stop-color="#000000" stop-opacity="0" offset="0%"></stop>
            <stop stop-color="#000000" offset="100%"></stop>
        </linearGradient>
    </defs>
    <g id="Redlines-and-QA" stroke="none" stroke-width="1" fill="none" fill-rule="evenodd">
        <g id="schedule-partial-data" transform="translate(-621.000000, -825.000000)">
            <g id="Group-9" transform="translate(436.000000, 110.000000)">
                <g id="Group-5">
                    <g id="Mask-+-Event-1" transform="translate(37.000000, 698.000000)">
                        <g id="Group-2">
                            <g id="ic_empty-schedule-circle" transform="translate(148.000000, 17.000000)">
                                <mask id="mask-2" fill="white">
                                    <use xlink:href="#path-1"></use>
                                </mask>
                                <use id="Oval-254" fill-opacity="0" fill="#20A04A" xlink:href="#path-1"></use>
                                <polygon id="Path-1992" fill="url(#linearGradient-3)" opacity="0.0915345149" mask="url(#mask-2)" points="16 32.3936787 37.4667969 53.1274414 54.5112305 37.4238281 31.6217233 15 31.6217233 26.51176 31.6217233 31.6663015"></polygon>
                                <g id="ic_event_black_24dp" mask="url(#mask-2)">
                                    <g transform="translate(12.000000, 12.000000)">
                                        <polygon id="Shape" points="0 0 24 0 24 24 0 24"></polygon>
                                        <g id="Group" stroke-width="1" fill-rule="evenodd" transform="translate(3.000000, 1.000000)">
                                            <path d="M14,11 L9,11 L9,16 L14,16 L14,11 L14,11 Z M13,0 L13,2 L5,2 L5,0 L3,0 L3,2 L2,2 C0.89,2 0.01,2.9 0.01,4 L0,18 C0,19.1 0.89,20 2,20 L16,20 C17.1,20 18,19.1 18,18 L18,4 C18,2.9 17.1,2 16,2 L15,2 L15,0 L13,0 L13,0 Z M16,18 L2,18 L2,7 L16,7 L16,18 L16,18 Z" id="Shape" fill="#FFFFFF"></path>
                                        </g>
                                    </g>
                                </g>
                            </g>
                        </g>
                    </g>
                </g>
            </g>
        </g>
    </g>
</svg>