<?xml version="1.0" encoding="UTF-8" standalone="no"?>
<svg width="120px" height="92px" viewBox="0 0 120 92" version="1.1" xmlns="http://www.w3.org/2000/svg" xmlns:xlink="http://www.w3.org/1999/xlink">
    <!-- Generator: Sketch 3.8.3 (29802) - http://www.bohemiancoding.com/sketch -->
    <title>ic_video_youtube_shadow</title>
    <desc>Created with Sketch.</desc>
    <defs>
        <path d="M94.96,26.4 C94.96,26.4 94.04,19.8 91.16,16.92 C87.52,13.08 83.44,13.08 81.56,12.84 C68.16,11.88 48,12 48,12 C48,12 27.92,11.88 14.52,12.84 C12.68,13.08 8.6,13.08 4.96,16.92 C2.08,19.8 1.12,26.4 1.12,26.4 C1.12,26.4 0.16,34.2 0,41.92 L0,50 C0.16,57.76 1.12,65.48 1.12,65.48 C1.12,65.48 2.08,72.08 4.96,75 C8.6,78.8 13.36,78.68 15.52,79.08 C23.04,79.84 47.16,80 48,80 C48,80 68.2,80.04 81.6,79.08 C83.44,78.84 87.52,78.84 91.16,75 C94.04,72.12 95,65.52 95,65.52 C95,65.52 95.96,57.76 96,50.04 L96,41.96 C95.92,34.2 94.96,26.4 94.96,26.4 L94.96,26.4 Z M38.28,60 L38.28,31.96 L64,46.52 L38.28,60 L38.28,60 Z" id="path-1"></path>
        <filter x="-50%" y="-50%" width="200%" height="200%" filterUnits="objectBoundingBox" id="filter-2">
            <feOffset dx="0" dy="6" in="SourceAlpha" result="shadowOffsetOuter1"></feOffset>
            <feGaussianBlur stdDeviation="6" in="shadowOffsetOuter1" result="shadowBlurOuter1"></feGaussianBlur>
            <feColorMatrix values="0 0 0 0 0   0 0 0 0 0   0 0 0 0 0  0 0 0 0.144021739 0" type="matrix" in="shadowBlurOuter1"></feColorMatrix>
        </filter>
    </defs>
    <g id="Redlines-and-QA" stroke="none" stroke-width="1" fill="none" fill-rule="evenodd">
        <g id="ic_video_youtube_shadow" transform="translate(12.000000, -6.000000)">
            <g id="Group">
                <polygon id="Shape" points="0 0 96 0 96 96 0 96"></polygon>
                <g id="Shape">
                    <use fill="black" fill-opacity="1" filter="url(#filter-2)" xlink:href="#path-1"></use>
                    <use fill="#FFFFFF" fill-rule="evenodd" xlink:href="#path-1"></use>
                </g>
            </g>
        </g>
    </g>
</svg>